<svg xmlns="http://www.w3.org/2000/svg" viewBox="0 0 84.827 72.035" height="272.259" width="320.607"><g stroke="#68595d" stroke-width="1.284"><path d="M38.783 3.26c.544 2.23 3.916 2.604 6.162 3.08 2.33.495 4.836.294 7.136-.323 1.47-.396 3.792-.608 4.054-2.109.164-.942-1.098-1.665-1.946-2.108C51.722.513 48.7.663 45.919.665c-1.965.002-4.154-.2-5.839.81-.63.379-1.471 1.07-1.297 1.785z" fill="none"/><path d="M21.106 9.26c2.416-.602 5.058.977 7.46.324 1.056-.287 1.712-1.458 2.757-1.784 1.704-.53 3.58-.38 5.352-.162 2.564.316 5.266.743 7.46 2.108.617.385 1.277.918 1.459 1.622.18.698-.037 1.545-.487 2.108-1.086 1.36-3.002 1.897-4.703 2.27-3.062.674-6.273-.026-9.405-.161-3.14-.136-6.445.404-9.406-.65-1.06-.376-2.13-1.011-2.757-1.945-.402-.599-.771-1.446-.486-2.108.42-.98 1.722-1.364 2.756-1.622z" fill="#68595d"/><path d="M28.906 19.886c.44-1.63 3.206-1.111 4.873-1.377 1.87-.297 3.785-.127 5.676-.229 2.831-.153 5.652-.492 8.486-.573 1.891-.054 3.82-.308 5.676.057 1.675.33 3.315.982 4.759 1.892.881.556 1.799 1.205 2.293 2.122.276.511.503 1.18.287 1.72-.355.887-1.391 1.405-2.293 1.72-2.636.919-5.588.442-8.371.23a20.947 20.947 0 01-4.415-.804c-1.353-.406-2.501-1.454-3.899-1.662-1.236-.184-2.477.395-3.727.401-1.382.007-2.783-.082-4.128-.401-1.236-.294-2.496-.674-3.555-1.376-.664-.441-1.87-.95-1.662-1.72zM12.393 23.326c-1.49.515-2.857 1.63-3.67 2.981-.561.935-1.057 2.207-.63 3.21.4.942 1.638 1.264 2.58 1.664 1.626.689 3.406 1.002 5.16 1.204a45.11 45.11 0 0010.149 0c2.317-.26 4.506-1.28 6.822-1.548 2.412-.28 4.86.111 7.282-.058 1.308-.091 2.999.438 3.899-.516.355-.376.264-1.052.115-1.548-.253-.834-.864-1.606-1.606-2.064-.829-.512-1.903-.43-2.867-.573-2.336-.347-4.691-.605-7.052-.688-1.414-.05-2.893.538-4.243.114-.86-.27-1.332-1.293-2.178-1.605-1.996-.736-4.24-.366-6.365-.459-2.463-.107-5.066-.921-7.396-.114z" fill="none"/><path d="M15.948 36.857c.59.16 1.46.064 1.777-.459.265-.436-.02-1.096-.344-1.49-.412-.503-1.133-.89-1.777-.803-.565.075-1.292.52-1.319 1.09-.037.782.907 1.455 1.663 1.662zM14.285 43.508c.212-1.267 1.82-2.442 3.096-2.294 1.293.15 2.727 1.696 2.523 2.982-.222 1.398-2.226 2.528-3.612 2.236-1.157-.244-2.202-1.758-2.007-2.924zM23.344 42.246c-1.13-.714-2.06-2.103-2.064-3.44-.003-.977.722-1.92 1.49-2.523 1.148-.899 2.773-.905 4.186-1.26 1.854-.468 3.743-1.515 5.62-1.148.743.146 1.169 1.032 1.891 1.262 1.931.614 4.067.429 6.078.172 1.698-.218 3.247-1.122 4.93-1.434 2.263-.419 4.582-.69 6.88-.573 1.244.064 2.512.234 3.67.688 1.535.602 2.675 1.975 4.186 2.637.67.294 1.42.36 2.121.574.966.294 1.862.882 2.867.974 1.461.135 3.096-1.381 4.357-.63.665.396.879 1.408.803 2.179-.118 1.203-1.156 2.136-1.892 3.096-.642.836-1.255 1.785-2.179 2.293-1.553.855-3.459.808-5.217 1.032-2.28.29-4.583.364-6.88.401-3.785.063-7.777.956-11.353-.286-.632-.22-1.24-.644-1.605-1.204-.366-.559.066-1.538-.459-1.95-1.549-1.214-3.94-.055-5.905.058-1.823.104-3.693 1.077-5.447.573-.537-.154-.8-.825-1.319-1.032-1.48-.591-3.411.392-4.759-.459zM41.118 66.5c-.283.791-.511 1.814-.057 2.522.752 1.175 2.488 1.323 3.841 1.663 2.66.668 5.457.758 8.2.688 3.258-.084 6.43-1.258 9.689-1.319 1.766-.034 3.51.425 5.275.516 3.55.183 7.263 1.091 10.664.057 1.303-.396 2.435-1.314 3.383-2.293.896-.926 2.188-1.986 2.064-3.268-.131-1.36-1.652-2.258-2.81-2.982-1.307-.817-2.88-1.22-4.414-1.376-2.657-.269-5.315.52-7.97.803-5.297.563-10.556 1.673-15.882 1.777-1.59.031-3.169-.306-4.759-.344-1.51-.035-3.18-.563-4.53.115-1.3.654-2.203 2.069-2.694 3.44z" fill="#68595d"/><path d="M65.944 61.683s-.805-2.852-1.777-3.899c-.757-.815-1.837-1.37-2.924-1.605-2.23-.483-4.549.345-6.823.516-2.81.211-5.642 1.046-8.428.63-1.46-.217-2.877-.822-4.129-1.605-.905-.567-1.347-1.811-2.35-2.179-3.18-1.164-6.769.251-10.149.459-2.946.181-5.877.668-8.83.688-2.68.018-5.354-.732-8.026-.516-2.13.172-4.33.494-6.25 1.433-2.061 1.01-4.532 2.207-5.332 4.358-.541 1.455-.26 3.456.803 4.587 3.325 3.535 9.376 2.574 14.162 3.383 3.011.508 6.08 1.247 9.116.917 2.56-.279 4.772-2.205 7.339-2.408 1.08-.086 2.17.82 3.21.516 1.573-.46 2.353-2.295 3.67-3.268 1.007-.745 1.977-1.735 3.21-1.95 1.98-.344 5.906 1.204 5.906 1.204" fill="none"/><path d="M13.998 59.848c-1.144.209-2.57 1.438-2.35 2.58.241 1.25 2.218 2.022 3.44 1.663 1.053-.31 2.018-1.753 1.72-2.81-.285-1.011-1.775-1.621-2.81-1.433zM26.21 51.305c.153-.936 1.405-1.674 2.352-1.605 1.011.074 2.258 1.05 2.236 2.064-.025 1.125-1.461 2.302-2.58 2.179-1.098-.121-2.184-1.547-2.007-2.638zM50.292 54.63c.005-.826 1.065-1.601 1.892-1.605.895-.004 2.009.826 2.064 1.72.051.837-.883 1.793-1.72 1.835-.988.05-2.243-.96-2.236-1.95zM66.288 48.553c-1.26.059-2.33 1.844-2.178 3.096.14 1.157 1.473 2.252 2.637 2.294 1.05.038 2.407-.848 2.523-1.892.169-1.523-1.451-3.569-2.982-3.498zM53.33 27.454c-.869.143-1.83 1.133-1.72 2.007.127.994 1.464 1.754 2.466 1.72 1.005-.035 2.422-.89 2.35-1.892-.085-1.197-1.912-2.03-3.095-1.835zM46.852 19.886c-.867.068-1.6 1.325-1.434 2.178.115.594.887 1.04 1.49 1.032.712-.01 1.65-.554 1.721-1.261.087-.875-.9-2.019-1.777-1.95zM51.094 13.75c-.694.04-1.317.97-1.261 1.663.043.526.62 1.123 1.147 1.09.664-.042 1.287-.883 1.261-1.548-.021-.554-.593-1.235-1.147-1.204zM51.21 8.476c-.584-.052-1.107.791-1.09 1.376.013.46.457 1.011.917 1.032.446.02.903-.477.975-.917.09-.558-.24-1.442-.803-1.491zM21.395 16.388c-.789.064-1.62 1.123-1.434 1.892.135.557.996.897 1.548.746.599-.164 1.101-.932 1.032-1.549-.058-.523-.62-1.132-1.146-1.089zM28.734 17.821c-.965-.353-2.206 1.152-2.18 2.18.021.77.971 1.729 1.721 1.547.576-.14.548-1.075.63-1.662.097-.684.477-1.827-.171-2.065z" fill="#68595d"/></g></svg>