<svg xmlns="http://www.w3.org/2000/svg" viewBox="0 0 84.517 81.547" height="308.21" width="319.436"><g stroke="#5e5d59"><path d="M16.402 56.808c.222-.887 8.212-54.593 8.212-54.593l18.42 41.722 2.662-19.751 12.872 23.967 1.997-17.532L75.33 51.524z" fill="none" stroke-width="1.243"/><path d="M20.508 55.366l2.552-9.654 5.437 6.88-.777-19.53 9.21 20.196.333-11.097 7.462 10.847 4.744-7.518 4.716 7.768z" fill="#5e5d59" stroke-width="1.245"/><path d="M24.614 2.215L43.92 35.282l-.888 8.655zM45.696 24.186l13.316 17.753-.444 6.214z" fill="#5e5d59" stroke-width="1.243"/><path d="M41.924 12.867c.602-1.94 4.091-1.826 5.992-1.11 1.232.466 2.716 1.82 2.44 3.108-.33 1.553-2.645 2.457-4.216 2.219-1.965-.298-4.806-2.318-4.216-4.217zM56.57 13.755c.61-1.708 3.607-1.686 5.327-1.11 1.491.5 3.425 2.011 3.107 3.551-.348 1.685-2.983 2.6-4.66 2.22-1.95-.442-4.445-2.778-3.773-4.66z" fill="none" stroke-width="1.243"/><path d="M56.57 23.076c.767-1.274 3.23-.422 4.44.444.726.52 1.542 1.659 1.109 2.441-.543.98-2.31.905-3.33.444-1.214-.55-2.905-2.186-2.218-3.329z" fill="#5e5d59" stroke-width="1.243"/><path d="M71.883 17.75c-.994.514-.912 2.312-.443 3.329.627 1.36 2.379 2.99 3.772 2.44 1.135-.447 1.386-2.436.888-3.55-.649-1.45-2.806-2.948-4.217-2.22z" fill="none" stroke-width="1.243"/><path d="M67.667 25.073c-1.347 1.13.042 3.909 1.331 5.105 1.213 1.124 3.752 2.094 4.883.887.834-.89-.109-2.612-.888-3.55-1.248-1.503-3.83-3.697-5.326-2.442zM80.538 28.18c-1.087.167-2.269 1.343-2.219 2.441.055 1.203 1.468 2.586 2.663 2.442 1.324-.16 2.52-2.03 2.22-3.33-.232-1-1.648-1.709-2.664-1.553zM72.55 35.726c-1.001.108-1.855 1.438-1.776 2.44.073.94 1.06 2.09 1.997 1.998 1.062-.105 1.912-1.605 1.775-2.663-.113-.883-1.111-1.871-1.997-1.775z" fill="#5e5d59" stroke-width="1.243"/><path d="M80.095 37.501c-.994.274-1.411 1.9-1.11 2.885.264.864 1.32 1.632 2.22 1.553.937-.082 2.053-1.057 1.996-1.997-.078-1.315-1.837-2.79-3.106-2.441z" fill="none" stroke-width="1.243"/><path d="M81.426 47.044c-.89.149-1.677 1.324-1.553 2.219.143 1.041 1.403 2.164 2.44 1.997.953-.153 1.734-1.493 1.554-2.44-.187-.99-1.449-1.942-2.44-1.776zM12.796 36.447c-1.031-.132-2.122.952-2.441 1.942-.271.841-.109 2.247.721 2.552 1.276.468 3.158-.935 3.385-2.275.154-.912-.748-2.101-1.665-2.22zM17.678 31.51c-.57.109-1.106.808-1.054 1.386.054.6.735 1.302 1.332 1.22.691-.093 1.273-1.096 1.11-1.775-.127-.524-.858-.934-1.388-.832z" fill="#5e5d59" stroke-width="1.243"/><path d="M5.75 46.267c-.85-.033-1.733 1.036-1.72 1.886.012.798.873 1.817 1.665 1.72.806-.099 1.275-1.298 1.22-2.108-.043-.631-.533-1.473-1.165-1.498zM12.297 44.603c-.968-.013-1.953 1.09-2.053 2.052-.118 1.143.739 2.83 1.886 2.885 1.183.057 2.27-1.59 2.22-2.774-.042-.993-1.06-2.15-2.053-2.163zM11.243 54.59c-1.298-.25-2.595 1.569-2.719 2.884-.148 1.573.98 3.834 2.552 3.995.976.1 1.86-1.147 2.053-2.108.336-1.677-.207-4.45-1.886-4.772zM2.366 56.143C.999 56.289.402 58.573.7 59.915c.208.934 1.216 2.016 2.164 1.887 1.032-.14 1.744-1.567 1.72-2.608-.029-1.257-.969-3.185-2.22-3.051zM6.915 66.629c-1.415.977-1.033 3.784 0 5.16.88 1.169 3.016 2.057 4.217 1.22 1.277-.89 1.172-3.349.333-4.66-.874-1.366-3.216-2.642-4.55-1.72z" fill="none" stroke-width="1.243"/><path d="M16.902 64.243c-.986.887-.422 3.042.555 3.939.981.902 3.228 1.314 3.994.222.704-1.004-.51-2.588-1.442-3.384-.812-.693-2.314-1.491-3.107-.777zM19.51 76.449c-.778-.392-2.054-.56-2.608.11-.798.967-.43 2.943.555 3.718 1.152.907 3.753.936 4.383-.389.594-1.25-1.094-2.817-2.33-3.44zM54.185 53.258c-.666.333-6.547 3.328-6.547 3.328l5.992 3.884-11.873 5.437 5.437 4.55 26.742-.222 7.657-9.21-6.263-9.501 8.038 8.724.222 8.433-9.987 10.32-46.937.11 11.762-6.88-7.212-4.66 16.422-7.545-6.325-2.22 9.876-4.77z" fill="#5e5d59" stroke-width="1.243"/><path d="M54.185 53.258l21.665-1.526" fill="none" stroke-width="1.243"/></g></svg>