<svg xmlns="http://www.w3.org/2000/svg" viewBox="0 0 6.529 6.262" height="23.667" width="24.676"><g transform="translate(-66.585 -56.786)"><path d="M68.538 56.918l3.959.034c.307.055.423.21.474.35l.01 5.162c-.034.358-.262.377-.467.434l-5.296.017c-.275-.008-.448-.098-.5-.284l.033-3.491c.023-.209.12-.304.3-.267h2.272c.357.332.486.676 0 1.052h-1.186v.468h.835c.211.267.278.534 0 .802h-.885v.484h2.122v-.869h-.568c-.17-.206-.142-.412 0-.618h1.202v1.554h.518v-1.787H70.31c-.358-.34-.4-.68 0-1.02h1.102v-.55h-2.873c-.57-.439-.605-1 0-1.47z" fill="#ccc384" stroke="#000" stroke-width=".265"/><circle r=".273" cy="57.68" cx="69.053" fill="#7c6a03" paint-order="markers stroke fill"/><circle r=".273" cy="57.65" cx="71.61" fill="#7c6a03" paint-order="markers stroke fill"/><circle r=".188" cy="57.989" cx="70.178" fill="#7c6a03" paint-order="markers stroke fill"/><circle r=".273" cy="58.63" cx="72.419" fill="#7c6a03" paint-order="markers stroke fill"/><circle r=".188" cy="59.844" cx="71.985" fill="#7c6a03" paint-order="markers stroke fill"/><circle r=".188" cy="59.383" cx="70.834" fill="#7c6a03" paint-order="markers stroke fill"/><circle r=".182" cy="61.657" cx="71.95" fill="#7c6a03" paint-order="markers stroke fill"/><circle r=".132" cy="60.644" cx="72.39" fill="#7c6a03" paint-order="markers stroke fill"/><circle r=".114" cy="62.422" cx="71.073" fill="#7c6a03" paint-order="markers stroke fill"/><circle r=".149" cy="60.591" cx="70.476" fill="#7c6a03" paint-order="markers stroke fill"/><circle r=".188" cy="62.318" cx="70.125" fill="#7c6a03" paint-order="markers stroke fill"/><circle r=".191" cy="62.327" cx="68.711" fill="#7c6a03" paint-order="markers stroke fill"/><circle r=".262" cy="61.565" cx="67.488" fill="#7c6a03" paint-order="markers stroke fill"/><circle r=".158" cy="60.8" cx="67.898" fill="#7c6a03" paint-order="markers stroke fill"/><circle r=".229" cy="59.513" cx="68.684" fill="#7c6a03" paint-order="markers stroke fill"/><circle r=".138" cy="59.286" cx="67.907" fill="#7c6a03" paint-order="markers stroke fill"/></g></svg>