<svg xmlns="http://www.w3.org/2000/svg" viewBox="0 0 6.27 7.185" height="27.155" width="23.699"><path d="M4.544 2.566c-.025-.78.887-1.56 1.57-2.34-.24-.53-6.11 1.218-5.98 4.077.069 1.49 2.056 2.882 3.542 2.74C4.9 6.924 6.129 5.5 6.115 4.268c-.01-.772-1.57-1.703-1.57-1.703z" fill="#ff4802" stroke="#000" stroke-width=".265"/><path d="M4.32 6.595s.533-1.977-.034-2.657c-.407-.488-1.31-.666-1.87-.368-.406.216-.643.824-.535 1.27.085.353.471.71.835.701.228-.006.5-.467.5-.467" fill="none" stroke="#4b1600" stroke-width=".565" stroke-linecap="square" paint-order="markers stroke fill"/></svg>