<svg xmlns="http://www.w3.org/2000/svg" viewBox="0 0 84.106 82.083" height="310.236" width="317.881"><g stroke="#685737" stroke-width="1.34"><path d="M21.239 2.127l-2.2 23.867 6.093-2.878.339-10.156 8.463-.508.507 8.464 21.835-4.401.17-13.71-7.786.677-.508 7.786-7.448-.17-.677-5.585-10.156.508L28.517.773z" fill="#685737"/><path d="M15.146 30.394l12.694-2.37.677-11.848 1.862-.169 1.524 10.494 29.282-7.955 3.216 14.218-3.893 2.2-2.2-9.986-8.125-.17v12.018l-7.786 1.524-1.524-9.31-9.817.339-.169 6.262-7.278.678.169 6.94-11.002 2.538z" fill="#685737"/><path d="M2.959 36.319l-1.862 25.22L16.5 61.2l.507-8.124 9.14-.847 1.693 8.802h11.002l4.401-4.062h3.216l1.524-11.002 9.647.507 1.185 9.14 6.094-.169s-1.785-3.215-1.524-4.908c.242-1.562 1.463-2.92 2.709-3.893.999-.781 3.554-1.354 3.554-1.354l-1.862-9.648-9.986 3.216-1.862-8.633h-2.54l.847 8.971-13.88 3.724-2.03-8.971H34.61l.338 5.755-6.601.338-.677 6.77-17.773 4.57-1.861 7.956-2.2-.338-.847-22.681z" fill="#685737"/><path d="M20.223 55.953l.17 5.586 3.385-.17-.508-5.585zM50.352 49.86l.339 6.6 4.4-.338-1.015-6.262z" fill="#685737"/><path d="M69.648 45.29s6.82-.883 9.479.846c1.948 1.266 2.66 3.886 3.385 6.093.551 1.676 1.301 3.598.677 5.247-.849 2.244-3.168 3.902-5.416 4.74-9.411 3.506-20.467-2.911-30.129-.17-2.56.727-4.217 3.483-6.77 4.232-4.44 1.303-13.88.17-13.88.17s-8.574-1.713-12.018.338c-1.064.634-1.75 1.982-1.862 3.216-.134 1.493.29 3.38 1.524 4.231 2.555 1.762 6.808 1.669 9.31-.169 1.006-.74 1.825-2.483 1.184-3.554-.852-1.425-4.909-.847-4.909-.847" fill="none"/><path d="M.081 67.463l6.94-.846s-2.225 3.771-1.862 5.755c.39 2.132 2.316 3.794 4.062 5.077 2.88 2.117 6.436 3.494 9.987 3.893 2.664.3 5.387-.414 7.955-1.184 1.669-.5 3.685-.815 4.74-2.2.831-1.093-.442-3.267.677-4.063 1.912-1.36 4.593 1.18 6.94 1.185 2.745.005 5.75.025 8.124-1.354 2.01-1.17 4.4-5.417 4.4-5.417l28.776-.338M64.909 55.445s6.008 1.787 8.801.847c.946-.32 1.887-1.084 2.2-2.032.29-.871.164-2.08-.507-2.708-1.412-1.318-5.755-.677-5.755-.677" fill="none"/><path d="M32.58 73.895s-2.042-2.17-2.2-3.555c-.154-1.33 1.282-3.806 1.282-3.806" fill="none"/></g></svg>