<svg xmlns="http://www.w3.org/2000/svg" viewBox="0 0 84.442 82.625" height="312.285" width="319.153"><g stroke="#705346" stroke-width="1.316"><path d="M36.728 59.742L31.885 26.37l-1.61-15.234L38.973.91l8.579 6.816-.588 28.791 6.816-10.341 5.876 7.05-5.382 8.738L44.954 65.5" fill="none"/><path d="M19.112 44.51L8.77 30.406 7.595 41.924 19.112 55.32l-6.346 1.41-2.82-4.466-6.346-1.88-.94 5.17L13 66.838l-6.816.94-5.17 6.816 8.46 3.996 22.564-5.876-5.641 8.226L40.5 72.948l22.798 8.93 4.7-3.525-20.683-10.576 11.517-.235 4.466 6.346 19.977-1.175-5.64-8.696-18.803-.705 14.337-10.107.705-5.17-4.23-.94-10.107 8.93-.235-3.525 15.747-16.217-3.996-7.99-13.631 18.801-4.23-2.82L42.38 61.901l-.94-16.922-4.23 3.996-3.291-17.392-7.051-10.577-5.406-.705.235 5.17L32.04 41.455l-1.176 5.405-4.935-8.46-5.64-.47z" fill="#705346"/><path d="M20.17 60.021l-3.878.059-.647 1.704 2.586.705zM21.521 53.264l2.585-7.168 12.398 19.86-8.578-2.233z" fill="#f8f7f1"/><path d="M39.574 1.44l1.16 23.914 6.581-7.873.236-9.754z" fill="#705346"/></g></svg>