<svg xmlns="http://www.w3.org/2000/svg" viewBox="0 0 84.56 71.072" height="268.619" width="319.597"><g stroke="#6a4955" stroke-width="1.3"><path d="M19.472 68.545l-.588-35.885 2.626-3.776 8.045.164v7.06h-3.448l-.774 1.34.697 31.449zM31.677 60.24l1.161-39.893 2.134-3.283 7.06-.329v6.239h-2.463L38.7 61.09zM61.075 9.183H47.613l-2.363 1.365-.29 47.575-6.068 6.037 4.885 4.033 8.269-3.52-.493-49.251h9.194zM64.03 6.72l1.478 8.374h3.776l2.79-8.701zM72.075 17.064l5.746-5.746 3.283 8.372-7.223.985zM75.03 25.272v6.074h7.88v-6.402zM75.522 36.271h8.209v5.582h-8.209z" fill="none"/><path d="M53.608 47.718l5.005-13.745 24.79 12.477.492 21.835-31.849-.165.82-13.954 8.045 7.223 3.94-4.596 6.567 4.76-3.12-11.163-7.387 4.597-1.149-8.044z" fill="none"/><path d="M71.746 46.45l8.373 2.627-4.925 2.955z" fill="#6a4955"/><path d="M71.418 61.554l7.223-7.224 2.463 10.507-6.73-.164L77 60.733M36.286 5.9l4.104 7.224 2.627-9.03zM22.824 20.347l2.626 6.895 2.463-7.06z" fill="none"/><path d="M4.93 1.632c-1.914 1.487-2.347 5.34-.822 7.223 1.8 2.221 6.332 2.64 8.537.821 1.78-1.47 2.09-5.085.657-6.895C11.553.572 7.154-.097 4.929 1.63z" fill="#6a4955"/><path d="M11.496 8.363c-1.335.969-1.58 3.684-.492 4.925 1.118 1.276 3.776 1.24 5.089.164 1.03-.844 1.403-2.838.656-3.94-1.005-1.485-3.802-2.202-5.253-1.15zM8.705 45.137c-1.453.324-2.896 2.147-2.627 3.611.272 1.478 2.326 2.856 3.776 2.463 1.536-.416 2.608-2.75 2.135-4.268-.372-1.193-2.065-2.078-3.284-1.806zM4.108 53.017c-.692.394-1.04 1.6-.656 2.298.467.85 1.913 1.234 2.79.821.755-.355 1.351-1.55.986-2.298-.472-.966-2.185-1.353-3.12-.821zM7.725 63.34s-.34 2.322.323 3.139c.906 1.115 2.734 1.743 4.105 1.313 1.117-.35 2.207-1.622 2.134-2.79-.1-1.584-3.34-3.39-3.34-3.39s2.627-2.563 4.325-3.013c2.348-.623 7.257.656 7.257.656s-2.857 2.205-2.824 3.776c.031 1.5 1.346 3.58 2.842 3.486 1.395-.087 2.213-2.157 2.223-3.554.011-1.444-2.241-3.708-2.241-3.708s2.966-1.549 4.563-1.477c2.29.102 6.327 2.694 6.327 2.694s-1.706.382-2.264.987c-.422.458-.692 1.15-.605 1.766.119.847.672 1.791 1.467 2.105.73.287 1.87.163 2.299-.493.812-1.244-.897-4.365-.897-4.365s2.13-.744 3.195-.56c.787.135 1.297 1.31 2.084 1.179 1.166-.196 1.335-2.05 2.349-2.657 2.23-1.336 5.315-3.055 7.591-1.797.706.39.781 2.29.781 2.29-2.34-2.874-4.343-.166-4.343-.166s-3.268 3.653-2.388 5.42c.427.855 1.84.752 2.791.656.78-.079 1.603-.409 2.134-.985 1.186-1.285 1.806-4.925 1.806-4.925s.805 1.403 1.15 2.134c.555 1.176 1.226 2.336 1.477 3.612.222 1.127 0 3.447 0 3.447l31.849.165-78.966 2.134S1.421 69.04.825 67.464c-.437-1.155.059-2.64.82-3.612.832-1.059 2.344-1.355 3.613-1.806 1.046-.372 2.142-.669 3.251-.725.818-.04 2.438.29 2.438.29S4.77 63.34 7.725 63.34z" fill="#6a4955"/><path d="M55.777 47.712l-2.91 6.454 8.044 7.223 3.94-4.596 6.567 4.76-3.12-11.163-7.387 4.597-1.149-8.044z" fill="#6a4955"/></g></svg>