<svg xmlns="http://www.w3.org/2000/svg" viewBox="0 0 7.622 4.875" height="18.424" width="28.807"><path d="M.146.135l1.7.035C2.043.014 3.203 2.084 3.89 3.265c.373.64 1.903.84 2.493.248.52-.521.333-1.717-.225-2.197-.314-.27-.98-.263-1.24.06-.18.223-.106.703.142.85.265.157.514-.07.874-.307l-.26 1.004c-.741.105-1.28-.18-1.595-.662-.244-.372-.195-.947.024-1.335.123-.218.397-.33.638-.401C5.333.348 6.062.176 6.595.489c1.07.847 1.14 2.733.425 3.662-.269.335-.742.491-1.169.543-.796.097-2.013.092-2.362-.46C2.802 3.149 1.536.858 1.327.985L.134.95z" fill="#82b16b" stroke="#000" stroke-width=".265"/></svg>