<svg xmlns="http://www.w3.org/2000/svg" viewBox="0 0 84.929 70.818" height="267.659" width="320.99"><g stroke="#554423" stroke-width="1.343"><path d="M7.766 70s4.827-4.302 5.998-7.197c.812-2.007.48-6.477.48-6.477M76.378 68.8s-4.328-3.204-5.518-5.517c-1.113-2.162-1.2-7.197-1.2-7.197" fill="none"/><path d="M9.686 47.45h25.909s2.215.958 2.159 1.919c-.057.974-1.462 1.406-2.4 1.68-5.79 1.686-12.322-2.598-18.076-.792-1.649.517-3.64 1.484-4.12 3.144-.29.999 1.086 2.925 1.086 2.925l55.417-.24s1.808-1 1.696-1.822c-.174-1.283-2.367-1.146-3.308-2.035-.575-.544-1.427-1.162-1.357-1.951.057-.637.778-1.086 1.357-1.357 1.697-.795 3.726-.44 5.598-.509 1.667-.061 3.36-.19 5.005.085.788.132 1.935.021 2.28.742.591 1.238-1.297 2.485-1.468 3.847-.29 2.312-.164 4.824.8 6.946.868 1.913 4.24 4.665 4.24 4.665" fill="none"/><path d="M6.896 44.34L34.97 1.679l4.75 20.44L56.43 7.107l.932 17.642 16.2-14.334L70.848 30.6l12.468-6.022-2.57 23.823-7.219-.409s.29-6.684-1.491-9.25c-.816-1.174-2.356-1.728-3.732-2.12-5.508-1.567-11.442-.72-17.169-.649-5.71.071-11.726-.865-17.098 1.073-1.58.57-3.314 1.47-4.07 2.97-1.064 2.107.042 7.081.042 7.081l-7.803.34s3.48-.435 4.665-1.57c.766-.733 1.381-1.934 1.145-2.968-.277-1.21-1.613-1.975-2.714-2.545-1.128-.583-2.508-1.1-3.732-.763-1.622.445-3.732 3.393-3.732 3.393s2.866-.916 4.75-.976c0 0 2.273.622 2.247 1.527-.016.577-1.484.89-1.484.89l-16.455-.084" fill="#554423"/><path d="M29.033 42.05l43.766-.254" fill="none"/><path d="M7.829 55.282c.023-.825 1.138-1.674 1.95-1.526.75.136 1.42 1.225 1.188 1.95-.197.616-1.143.865-1.781.764-.594-.094-1.374-.587-1.357-1.188zM18.6 61.135c.15-.481.69-.999 1.188-.933.42.055.813.596.763 1.017-.076.658-.89 1.46-1.526 1.273-.455-.134-.565-.905-.424-1.357zM37.685 63.849c-.6.014-1.375.681-1.273 1.272.102.586 1.05.957 1.612.763.418-.144.675-.752.594-1.187-.078-.413-.513-.858-.933-.848zM49.56 60.202c-.538.054-1.254.566-1.188 1.102.079.64 1.06 1.037 1.696.933.494-.08 1.087-.607 1.018-1.102-.082-.591-.933-.993-1.527-.933zM61.264 61.983c-.065-.638.803-1.225 1.442-1.272.672-.05 1.648.43 1.696 1.102.043.6-.759 1.128-1.357 1.188-.68.068-1.711-.338-1.781-1.018zM51.51 47.818c-.64.02-1.355.807-1.272 1.442.079.607.92 1.102 1.526 1.018.517-.071 1.038-.666 1.018-1.187-.023-.6-.673-1.291-1.272-1.273zM43.367 44.85c-.738.042-1.796.81-1.611 1.526.197.764 1.612.997 2.29.594.4-.238.495-.918.34-1.357-.143-.4-.595-.788-1.019-.763zM58.295 46.461c-.513.09-1.137.68-1.017 1.188.133.567 1.051.841 1.611.678.43-.125.864-.667.763-1.102-.116-.506-.846-.854-1.357-.764zM66.438 44.935c-.626.112-1.227 1.011-1.018 1.611.197.566 1.127.779 1.696.594.425-.138.833-.661.764-1.103-.094-.598-.847-1.21-1.442-1.102zM65.08 68.09c-.427.11-.968.593-.847 1.018.122.43.849.569 1.272.424.386-.133.802-.63.678-1.018-.119-.375-.721-.523-1.102-.424zM51.934 66.648c-.407.106-.942.523-.848.933.102.445.843.665 1.272.509.392-.143.748-.715.594-1.103-.132-.332-.672-.43-1.018-.34zM21.145 68.599c-.433.11-.889.673-.763 1.102.103.353.657.496 1.018.424.431-.085 1.003-.499.933-.933-.071-.436-.76-.703-1.188-.593zM7.914 63.425c-.57.121-1.085.995-.848 1.526.153.345.748.384 1.102.255.398-.146.823-.598.763-1.018-.06-.42-.603-.852-1.017-.763z" fill="#544222"/><path d="M.45 64.782s3.805-3.43 4.495-5.768c1.005-3.402-1.86-7.177-.933-10.602.434-1.605 2.884-4.071 2.884-4.071" fill="none"/></g></svg>